<svg width="100px" height="150px" version="1.1" xmlns="http://www.w3.org/2000/svg"
	xmlns:xlink="http://www.w3.org/1999/xlink" xml:space="preserve" xmlns:serif="http://www.serif.com/"
	viewBox="350 100 800 1300">
	<g style="fill: white">
		<path
			d="M349.25,634.125C349.625,628 351.125,615.25 352.5,605.625C353.875,596 356.125,579.125 357.5,568.125C359,557.125 361.25,540.25 362.5,530.625C363.875,521 366,504.125 367.5,493.125C368.875,482.125 371.125,464.875 372.5,454.75C373.875,444.5 376.125,427.875 377.5,417.5C378.875,407.25 381.125,390.5 382.5,380.375C383.875,370.125 386.125,352.875 387.5,341.875C390.625,318.375 394.125,291.625 397.5,265.875C403.375,222.375 405.125,209 407.375,191.5C408.75,181.375 411,165 412.375,155C413.875,145 415,135.375 415,133.5C415,131.625 415.625,127.25 416.375,123.75L417.75,117.5L517.875,117.75L618.125,118.125L619.125,126.875C619.625,131.75 621.125,143 622.5,151.875C623.875,160.875 626.125,176.25 627.5,186.25C629,196.25 631.25,211.125 632.5,219.375C633.75,227.625 636,242.875 637.5,253.125C639,263.5 641.25,278.875 642.5,287.5C643.875,296.125 646,310.75 647.375,320C648.75,329.25 651,344.625 652.5,354.125C653.875,363.5 656.125,378.75 657.5,387.875C658.75,396.875 661,412 662.375,421.25C663.75,430.5 666.125,446.25 667.5,456.25C669,466.25 671.25,481.125 672.5,489.375C673.75,497.625 676,512.875 677.5,523.125C679,533.5 681.25,548.125 682.625,555.75C683.875,563.5 685,571.125 685,572.625C685,575.375 686.5,585.25 692.625,621.25C693.875,629.125 695,637.75 695,640.375L695,645L554.125,645L553.375,638.5C552.625,632.125 551.625,619.625 548.75,579.375C548,569.125 547,558.25 546.625,555.375L545.875,550L499.25,550L497.125,577.25C493,629.875 492.375,636.875 491.625,641L491,645L348.5,645L349.25,634.125ZM542.125,453.25C541.75,452.25 541.125,447.375 540.625,442.375C540.25,437.25 538.75,423.25 537.5,411.25C533,370.75 525.5,293.875 524.25,275.625C523.875,269.5 523.125,261.875 522.625,258.75L521.75,253.125L520.75,260.625C520.25,264.75 518.875,276.25 517.5,286.25C516.25,296.25 514,314.25 512.5,326.25C511.125,338.25 508.875,357.125 507.5,368.125C506.125,379.125 504,397.375 502.625,408.75C501.25,420.125 499.75,435.125 499.375,442.25L498.5,455L520.625,455C539.125,455 542.625,454.75 542.125,453.25Z">
		</path>
		<path
			d="M720,645L720,117.5L860,117.5L860,540.375L896.625,540C916.625,539.75 944.25,539.625 957.875,539.75L982.5,540L982.5,645L720,645Z">
		</path>
		<path d="M1013.75,645L1013.75,117.5L1152.5,117.5L1152.5,645L1013.75,645Z"></path>
		<path
			d="M347,1170.25C346.5,1053.5 346.5,897.375 347,823.375L347.875,688.75L531.25,688.75L531.5,817.875C531.875,928.75 532.125,946.125 533.625,941.25C534.5,938.125 536.375,932.125 537.625,927.875C539,923.5 541.125,916.5 542.5,912.25C544.875,904.375 547.25,896.5 552.5,878.75C554,873.625 556.375,866 557.625,861.875C558.875,857.75 561.125,850.5 562.5,845.625C563.875,840.875 566.125,833.25 567.5,828.75C568.875,824.25 572.25,813 575,803.75C577.75,794.5 581.125,783.25 582.375,778.75C583.75,774.25 586,766.75 587.5,761.875C591.125,749.375 595,736.75 597.5,728.75C598.625,725 600.875,717.375 602.5,711.875C604,706.375 606.25,699.125 607.5,695.625L609.625,689.375L696.125,689C743.625,688.875 782.5,689 782.5,689.25C782.5,689.75 769,730.375 766.125,738.75C763.875,745.125 760.5,755 758.875,760C732.375,839.375 705.125,920.5 702.75,926.875C701.75,929.625 700.5,933.625 700,935.625C699.375,937.75 696,947.5 692.5,957.5C689,967.5 685.625,977.375 685,979.375C684.5,981.5 683.125,985.625 682,988.75C679,996.75 679.125,1006.75 682.375,1017C683.875,1021.75 686.25,1029.63 687.75,1034.38C689.125,1039.25 691.375,1046.25 692.5,1050C696,1061 702.375,1082.25 708.25,1101.88C710,1108.13 712.25,1115.38 713.125,1118.13C714,1120.88 716,1127.38 717.5,1132.5C719.125,1137.63 721.375,1145 722.5,1148.75C723.75,1152.5 726,1160.13 727.5,1165.63C729.125,1171.13 731.375,1178.75 732.5,1182.5C733.75,1186.25 736,1193.63 737.5,1198.75C739.125,1203.88 741.375,1211.25 742.5,1215C744.625,1221.88 748,1233 752.75,1249.38C754.25,1254.25 756.375,1261.25 757.5,1265C759.5,1271.38 760.75,1275.63 767.5,1298.13C774.375,1321.13 775.5,1324.88 777.5,1331.25C778.75,1335 781,1342.38 782.5,1347.5C784,1352.63 786.25,1360.25 787.5,1364.38C788.75,1368.5 790.125,1373.38 790.5,1375.25C790.875,1377 791.625,1379.38 792,1380.5C792.75,1382.38 784.125,1382.5 697.25,1382.5L601.625,1382.5L599.625,1372.88C598.5,1367.5 597,1360.63 596.125,1357.5C593.375,1346.5 590.125,1333 587.5,1321.88C586,1315.75 583.75,1306.38 582.5,1301.25C577.75,1282.25 572.625,1262.13 567.5,1241C566,1235.25 563.75,1226.5 562.5,1221.63C561.125,1216.63 560,1211.63 560,1210.63C560,1209.63 558.875,1204.63 557.5,1199.63C555.125,1190.63 552.25,1179.25 547.75,1160.63C546.375,1155.13 544.625,1147.88 543.75,1144.38C542.875,1141 541.625,1135.88 541,1133.13C540.25,1130.38 538.75,1123.88 537.375,1118.75C536.125,1113.63 534.625,1107.38 534.125,1105L533.25,1100.63L532.375,1104.38C531.875,1106.5 531.5,1169.88 531.375,1245.38L531.25,1382.5L347.875,1382.5L347,1170.25Z">
		</path>
		<path
			d="M832.5,1219.75C832.5,1117.38 832,1043.13 831.125,1020C830,993.5 829.875,941.5 830.625,836L831.5,688.75L1152.5,688.75L1152.5,827.25L1142.25,828.25C1136.5,828.75 1106.38,829.125 1075.38,829L1018.75,828.875L1018.75,957.5L1135,957.5L1135,1091.25L1018.75,1091.25L1018.75,1242.25L1050.88,1243.13C1068.5,1243.63 1092.88,1243.88 1105,1243.63C1117,1243.38 1132.63,1243.38 1139.75,1243.5L1152.5,1243.75L1152.5,1382.5L832.5,1382.5L832.5,1219.75Z">
		</path>
	</g>
</svg>
