<svg viewBox="0 0 1000 1000" fill="white" xmlns="http://www.w3.org/2000/svg">
	<path
		d="M499.999 1000C224.297 1000 0 775.701 0 500.001 0 224.297 224.297-.001 499.999-.001 775.698-.001 1000 224.299 1000 500.001 1000 775.7 775.699 1000 499.999 1000zm84.629-693.396H302.054l-42.874 68.901h282.249l43.199-68.901zm57.747.658L469.632 582.324H278.018l44.207-68.959H437.07l43.87-68.926H215.439l-43.861 68.926h62.896l-87.266 137.68h364.189l134.516-212.136 49.046 74.456h-44.224l-41.882 68.959h130.961l45.475 68.721h83.541L642.375 307.262z" />
</svg>
