<svg viewBox="0 0 373 373" fill="white" xmlns="http://www.w3.org/2000/svg">
	<path
		d="M.538 209.996v117.087h45.916V373h326.008V209.996H.538zm348.966 117.087v22.959H69.413v-22.959h280.091zm0-91.833v68.875H23.496V235.25h326.008zm-67.727 28.468c-4.132 6.199-2.525 11.939 3.903 15.382 10.331 5.51 20.892-5.51 14.464-15.382-4.592-7.117-13.546-7.346-18.367 0zM56.518 209.996c-7.953-16.059-12.493-33.247-14.999-55.684-1.092-9.773-.7-15.363 2.478-35.422 3.962-25 18.199-53.922 35.306-71.722 7.287-7.581 7.937-7.766 16.818-4.774 10.786 3.634 22.304 11.589 40.167 27.741l10.422 9.424-5.691 6.991c-26.419 32.456-54.308 78.461-64.818 106.923-2.086 5.648-3.717 11.304-4.828 16.523H56.518zm43.44 0c8.951-14.621 22.39-31.653 39.532-49.847 18.728-19.878 44.816-43.178 47.637-42.547 5.484 1.227 49.333 43.998 65.748 64.131 8.228 10.093 15.047 19.607 20.33 28.263H99.958zm201.952 0a109.983 109.983 0 00-3.195-11.941c-8.592-26.211-37.312-74.972-63.685-108.125l-8.303-10.437 8.982-8.247c11.728-10.768 19.87-17.216 28.656-22.692 6.933-4.321 16.841-8.146 21.099-8.146 2.625 0 11.869 9.592 19.33 20.061 11.557 16.213 20.059 35.867 24.366 56.327 2.784 13.22 3.015 41.519.449 54.706-2.107 10.823-6.554 24.861-10.893 34.382a95.799 95.799 0 01-2.016 4.112h-14.79zM174.099 35.458c-12.169-6.179-30.941-12.812-41.31-14.597-3.636-.625-9.837-.974-13.781-.775-8.556.432-8.174-.016 5.551-6.5 11.411-5.391 20.929-8.561 33.85-11.274 14.535-3.052 41.857-3.088 56.161-.074 15.449 3.256 33.641 10.026 43.892 16.334l3.047 1.875-6.99-.353c-13.891-.701-34.136 4.91-55.87 15.488-6.556 3.19-12.259 5.738-12.674 5.663-.416-.077-5.76-2.68-11.876-5.787z" />
</svg>
