<svg viewBox="0 0 373 373" fill="white" xmlns="http://www.w3.org/2000/svg">
	<path
		d="M167.617 371.807c-28.683-2.747-57.723-13.048-82.669-29.324-20.904-13.639-25.625-19.246-25.625-30.435 0-22.475 24.712-61.84 66.993-106.716 24.012-25.486 57.46-55.36 61.077-54.551 7.031 1.573 63.251 56.411 84.297 82.225 33.28 40.822 48.581 74.246 40.808 89.147-5.909 11.328-42.573 33.467-69.508 41.973-22.2 7.01-51.356 9.981-75.373 7.681zM31.089 288.68C13.718 262.031 4.942 235.795.705 197.848c-1.4-12.53-.898-19.697 3.177-45.415 5.079-32.054 23.333-69.136 45.267-91.957 9.342-9.72 10.176-9.957 21.563-6.121 13.829 4.659 28.596 14.858 51.499 35.567l13.362 12.083-7.297 8.964c-33.872 41.612-69.629 100.597-83.105 137.089-7.326 19.839-10.281 39.753-7.129 48.044 2.128 5.597.173 3.511-6.953-7.422zm304.916 4.533c1.716-8.377-.455-23.763-5.542-39.28-11.016-33.606-47.839-96.124-81.652-138.631l-10.645-13.381 11.516-10.574c15.036-13.806 25.476-22.074 36.74-29.094 8.889-5.54 21.592-10.445 27.052-10.445 3.366 0 15.217 12.299 24.784 25.721 14.817 20.788 25.718 45.987 31.24 72.219 3.569 16.95 3.866 53.232.575 70.14-2.701 13.876-8.403 31.875-13.966 44.082-4.168 9.146-14.535 26.91-19.078 32.691-2.336 2.971-2.338 2.965-1.024-3.448zM170.689 45.462c-15.602-7.922-39.67-16.427-52.965-18.715-4.661-.802-12.612-1.249-17.669-.994-10.97.554-10.48-.02 7.118-8.334 14.63-6.912 26.833-10.976 43.4-14.455 18.636-3.913 53.666-3.959 72.005-.094 19.808 4.174 43.133 12.854 56.276 20.942l3.907 2.404-8.963-.453c-17.81-.899-43.766 6.296-71.632 19.858-8.406 4.09-15.718 7.357-16.25 7.26-.533-.098-7.385-3.436-15.227-7.419z" />
</svg>
