<svg viewBox="0 0 373 373" fill="white" xmlns="http://www.w3.org/2000/svg">
	<path
		d="M0 31.391v310.218h166.816V31.391H0zm142.915 23.9v262.418H23.9V55.291h119.015zM47.801 269.42v23.901h71.214V269.42H47.801zm0-47.313v23.9h71.214v-23.9H47.801zm0-142.915v23.9h71.214v-23.9H47.801z" />
	<path
		d="M166.816 217.229a441.445 441.445 0 0114.275-15.874c18.728-19.878 44.816-43.179 47.637-42.548 5.484 1.227 49.333 43.998 65.748 64.132 25.957 31.839 37.891 57.908 31.828 69.53-4.609 8.836-33.205 26.103-54.213 32.737-17.315 5.468-40.055 7.785-58.787 5.991-15.763-1.51-31.664-5.944-46.488-12.873V217.229zm177.822 52.668c1.339-6.533-.355-18.534-4.322-30.636-8.592-26.211-37.312-74.972-63.685-108.125l-8.302-10.437 8.982-8.247c11.727-10.768 19.87-17.217 28.655-22.692 6.933-4.321 16.841-8.147 21.099-8.147 2.626 0 11.869 9.593 19.331 20.061 11.556 16.214 20.058 35.868 24.365 56.328 2.784 13.22 3.016 41.518.449 54.706-2.107 10.822-6.554 24.86-10.893 34.381-3.251 7.134-11.337 20.989-14.88 25.498-1.822 2.317-1.824 2.312-.799-2.69zM166.816 101.709c3.415 2.829 7.086 6.026 11.073 9.631l10.422 9.425-5.691 6.991c-5.26 6.462-10.578 13.461-15.804 20.75v-46.797zm0-47.225c11.122-5.205 20.521-8.305 33.194-10.967 14.536-3.052 41.857-3.087 56.161-.073 15.449 3.256 33.641 10.026 43.892 16.334l3.048 1.875-6.991-.354c-13.891-.701-34.135 4.911-55.87 15.489-6.556 3.19-12.259 5.738-12.674 5.662-.416-.076-5.76-2.68-11.876-5.786-12.169-6.179-30.941-12.813-41.31-14.597-2.012-.346-4.809-.608-7.574-.738v-6.845z" />
</svg>
