<svg viewBox="0 0 1000 915" fill="white" xmlns="http://www.w3.org/2000/svg">
	<path
		d="M472.56 2.075c-282.686 0-404.705 251.621-404.705 251.621l35.918 25.711s-45.199 85.954-43.948 196.202c0 225.056 179.152 437.062 442.878 437.062 239.585 0 437.497-195.006 437.497-436.509 0-314.974-244.251-474.087-467.64-474.087zm2.453 76.779c220.862 0 392.245 177.979 392.245 384.887 0 219.337-164.965 371.874-357.198 371.874-141.478 0-269.105-107.74-269.105-255.458 0-85.319 45.348-144.801 96.163-176.502l7.437 8.07c-13.907 10.881-53.56 74.577-53.56 137.183 0 116.222 91.142 196.715 205.972 196.715 146.274 0 243.828-124.76 243.828-269.618 0-168.542-148.772-311.629-327.807-311.629-99.026 0-183.073 42.587-231.368 80.182l-7.515-6.804c63.183-97.419 172.598-158.9 300.908-158.9zm-65.902 161.234c114.251 0 225.796 75.583 253.638 182.871l-10.126 3.837c-49.992-66.017-131.907-120.727-228.638-120.727-177.997 0-271.476 161.744-257.752 296.833l-10.483 3.838s-19.66-43.38-19.66-94.818c0-148.959 122.328-271.834 273.021-271.834zm75.514 186.945c54.092 0 97.349 43.842 97.349 95.886 0 43.068-27.65 68.591-27.65 68.591l32.753 22.904s-32.478 50.989-98.773 50.989c-63.416 0-119.501-51.186-119.501-120.016 0-70.924 61.006-118.354 115.822-118.354z" />
</svg>
